<?xml version="1.0" encoding="iso-8859-1"?>
<!-- Uploaded to: SVG Repo, www.svgrepo.com, Generator: SVG Repo Mixer Tools -->
<svg version="1.1" id="Layer_1" xmlns="http://www.w3.org/2000/svg" xmlns:xlink="http://www.w3.org/1999/xlink" 
	 viewBox="0 0 452.949 452.949" xml:space="preserve">
<g>
	<g id="XMLID_39_">
		<g>
			<path style="fill:#AFB6BB;" d="M226.475,181.684c24.784,0,44.79,20.006,44.79,44.79s-20.006,44.79-44.79,44.79
				s-44.79-20.006-44.79-44.79S201.691,181.684,226.475,181.684z"/>
			<path style="fill:#72787C;" d="M226.475,271.264v49.767c-52.255,0-94.557-42.302-94.557-94.557h49.767
				C181.685,251.258,201.691,271.264,226.475,271.264z"/>
			<path style="fill:#72787C;" d="M321.032,226.474h-49.767c0-24.784-20.006-44.79-44.79-44.79v-49.767
				C278.73,131.917,321.032,174.219,321.032,226.474z"/>
			<path style="fill:#E7ECED;" d="M226.475,131.917v49.767c-24.784,0-44.79,20.006-44.79,44.79h-49.767
				C131.918,174.219,174.22,131.917,226.475,131.917z"/>
			<path style="fill:#E7ECED;" d="M271.265,226.474h49.767c0,52.255-42.302,94.557-94.557,94.557v-49.767
				C251.259,271.264,271.265,251.258,271.265,226.474z"/>
			<path style="fill:#AFB6BB;" d="M445.449,171.731v109.487h-86.793l61.412,61.412l-77.437,77.437l-61.412-61.412v86.793H171.732
				v-86.793l-61.412,61.412L32.882,342.63l61.412-61.412H7.501V171.731h86.793l-61.412-61.412l77.437-77.437l61.412,61.412V7.5
				h109.487v86.793l61.412-61.412l77.437,77.437l-61.412,61.412h86.794V171.731z M226.475,321.031
				c52.255,0,94.557-42.302,94.557-94.557s-42.302-94.557-94.557-94.557s-94.557,42.302-94.557,94.557
				S174.22,321.031,226.475,321.031z"/>
		</g>
		<g>
			<path d="M452.949,164.23h-76.187l53.912-53.912l-88.043-88.043l-53.912,53.912V0H164.231v76.187l-53.912-53.912l-88.044,88.043
				l53.912,53.912H0.001v124.487h76.187L22.275,342.63l88.044,88.044l53.912-53.912v76.187h124.487v-76.187l53.912,53.913
				l88.044-88.044l-53.912-53.912h76.187V164.23z M437.949,273.718H340.55l68.912,68.912l-66.831,66.831l-68.912-68.913v97.4
				h-94.488v-97.4l-68.912,68.913L43.488,342.63l68.912-68.912H15.001V179.23H112.4l-68.912-68.912l66.831-66.83l68.912,68.912V15
				h94.487v97.4l68.912-68.912l66.831,66.83l-68.912,68.912h97.399v94.488H437.949z"/>
			<path d="M226.475,124.417c-56.274,0-102.057,45.783-102.057,102.057S170.2,328.531,226.475,328.531
				s102.058-45.783,102.058-102.057S282.749,124.417,226.475,124.417z M313.206,218.974H278.22
				c-3.296-22.841-21.404-40.948-44.245-44.244v-34.986C276.007,143.348,309.602,176.942,313.206,218.974z M226.475,263.764
				c-20.562,0-37.29-16.728-37.29-37.29s16.729-37.29,37.29-37.29c20.563,0,37.291,16.728,37.291,37.29
				S247.037,263.764,226.475,263.764z M218.975,139.744v34.986c-22.841,3.296-40.948,21.404-44.244,44.244h-34.986
				C143.349,176.942,176.943,143.348,218.975,139.744z M139.745,233.974h34.986c3.296,22.841,21.403,40.948,44.244,44.244v34.986
				C176.943,309.6,143.349,276.006,139.745,233.974z M233.975,313.204v-34.986c22.841-3.296,40.949-21.403,44.245-44.244h34.986
				C309.602,276.006,276.007,309.601,233.975,313.204z"/>
			<rect x="211.545" y="44.79" width="29.86" height="15"/>
			<rect x="211.545" y="393.158" width="29.86" height="15"/>
			<rect x="42.338" y="218.974" width="29.86" height="15"/>
			<rect x="380.752" y="218.974" width="29.86" height="15"/>
		</g>
	</g>
</g>
</svg>